RBDS028runT45_grf
version=1
nRows=27
nColumns=19
inDegrees=no
endheader
time	ground_force_r_vx	ground_force_r_vy	ground_force_r_vz	ground_force_r_px	ground_force_r_py	ground_force_r_pz	ground_force_r_mx	ground_force_r_my	ground_force_r_mz	ground_force_l_vx	ground_force_l_vy	ground_force_l_vz	ground_force_l_px	ground_force_l_py	ground_force_l_pz	ground_force_l_mx	ground_force_l_my	ground_force_l_mz
      7.49900000	      0.00000000	      0.00000000	      0.00000000	      0.00000000	      0.00000000	      0.00000000	      0.00000000	      0.00000000	      0.00000000	    189.55865788	    953.61064369	    -18.11451782	      1.72863335	      0.00000000	      0.98068767	      0.00000000	     -0.53266173	      0.00000000
      7.50000000	      0.00000000	      0.00000000	      0.00000000	      0.00000000	      0.00000000	      0.00000000	      0.00000000	      0.00000000	      0.00000000	    192.37047762	    932.80796514	    -18.64587314	      1.72536424	      0.00000000	      0.98082920	      0.00000000	     -0.72991945	      0.00000000
      7.50100000	      0.00000000	      0.00000000	      0.00000000	      0.00000000	      0.00000000	      0.00000000	      0.00000000	      0.00000000	      0.00000000	    194.26835755	    911.64919452	    -19.05288803	      1.72247577	      0.00000000	      0.98094295	      0.00000000	     -0.90708058	      0.00000000
      7.50200000	      0.00000000	      0.00000000	      0.00000000	      0.00000000	      0.00000000	      0.00000000	      0.00000000	      0.00000000	      0.00000000	    196.16623748	    890.49042389	    -19.45990292	      1.71958729	      0.00000000	      0.98105670	      0.00000000	     -1.08424171	      0.00000000
      7.50300000	      0.00000000	      0.00000000	      0.00000000	      0.00000000	      0.00000000	      0.00000000	      0.00000000	      0.00000000	      0.00000000	    198.06411741	    869.33165327	    -19.86691782	      1.71669882	      0.00000000	      0.98117045	      0.00000000	     -1.26140284	      0.00000000
      7.50400000	      0.00000000	      0.00000000	      0.00000000	      0.00000000	      0.00000000	      0.00000000	      0.00000000	      0.00000000	      0.00000000	    199.35491259	    848.06522743	    -20.18011522	      1.71408999	      0.00000000	      0.98126224	      0.00000000	     -1.42204031	      0.00000000
      7.50500000	      0.00000000	      0.00000000	      0.00000000	      0.00000000	      0.00000000	      0.00000000	      0.00000000	      0.00000000	      0.00000000	    200.34216541	    826.74497399	    -20.44640388	      1.71162096	      0.00000000	      0.98134305	      0.00000000	     -1.57441595	      0.00000000
      7.50600000	      0.00000000	      0.00000000	      0.00000000	      0.00000000	      0.00000000	      0.00000000	      0.00000000	      0.00000000	      0.00000000	    201.32941822	    805.42472055	    -20.71269253	      1.70915194	      0.00000000	      0.98142385	      0.00000000	     -1.72679159	      0.00000000
      7.50700000	      0.00000000	      0.00000000	      0.00000000	      0.00000000	      0.00000000	      0.00000000	      0.00000000	      0.00000000	      0.00000000	    202.02068273	    784.11550154	    -20.92881335	      1.70683312	      0.00000000	      0.98149230	      0.00000000	     -1.86979522	      0.00000000
      7.50800000	      0.00000000	      0.00000000	      0.00000000	      0.00000000	      0.00000000	      0.00000000	      0.00000000	      0.00000000	      0.00000000	    202.11997065	    762.82835140	    -21.04459848	      1.70481470	      0.00000000	      0.98153602	      0.00000000	     -1.99405484	      0.00000000
      7.50900000	      0.00000000	      0.00000000	      0.00000000	      0.00000000	      0.00000000	      0.00000000	      0.00000000	      0.00000000	      0.00000000	    202.21925856	    741.54120125	    -21.16038360	      1.70279628	      0.00000000	      0.98157974	      0.00000000	     -2.11831446	      0.00000000
      7.51000000	      0.00000000	      0.00000000	      0.00000000	      0.00000000	      0.00000000	      0.00000000	      0.00000000	      0.00000000	      0.00000000	    202.31854647	    720.25405111	    -21.27616873	      1.70077786	      0.00000000	      0.98162346	      0.00000000	     -2.24257408	      0.00000000
      7.51100000	      0.00000000	      0.00000000	      0.00000000	      0.00000000	      0.00000000	      0.00000000	      0.00000000	      0.00000000	      0.00000000	    201.57125944	    699.19118282	    -21.23823844	      1.69923201	      0.00000000	      0.98162715	      0.00000000	     -2.33677381	      0.00000000
      7.51200000	      0.00000000	      0.00000000	      0.00000000	      0.00000000	      0.00000000	      0.00000000	      0.00000000	      0.00000000	      0.00000000	    200.82397241	    678.12831453	    -21.20030815	      1.69768617	      0.00000000	      0.98163084	      0.00000000	     -2.43097354	      0.00000000
      7.51300000	      0.00000000	      0.00000000	      0.00000000	      0.00000000	      0.00000000	      0.00000000	      0.00000000	      0.00000000	      0.00000000	    200.07668538	    657.06544624	    -21.16237786	      1.69614032	      0.00000000	      0.98163453	      0.00000000	     -2.52517327	      0.00000000
      7.51400000	      0.00000000	      0.00000000	      0.00000000	      0.00000000	      0.00000000	      0.00000000	      0.00000000	      0.00000000	      0.00000000	    198.80434175	    636.27503242	    -21.02398895	      1.69491718	      0.00000000	      0.98161047	      0.00000000	     -2.59893790	      0.00000000
      7.51500000	      0.00000000	      0.00000000	      0.00000000	      0.00000000	      0.00000000	      0.00000000	      0.00000000	      0.00000000	      0.00000000	    197.26946982	    615.62084582	    -20.83537073	      1.69385539	      0.00000000	      0.98157254	      0.00000000	     -2.66248498	      0.00000000
      7.51600000	      0.00000000	      0.00000000	      0.00000000	      0.00000000	      0.00000000	      0.00000000	      0.00000000	      0.00000000	      0.00000000	    195.73459789	    594.96665922	    -20.64675251	      1.69279360	      0.00000000	      0.98153460	      0.00000000	     -2.72603206	      0.00000000
      7.51700000	      0.00000000	      0.00000000	      0.00000000	      0.00000000	      0.00000000	      0.00000000	      0.00000000	      0.00000000	      0.00000000	    193.96218536	    574.50682246	    -20.41080546	      1.69189316	      0.00000000	      0.98148273	      0.00000000	     -2.77958305	      0.00000000
      7.51800000	      0.00000000	      0.00000000	      0.00000000	      0.00000000	      0.00000000	      0.00000000	      0.00000000	      0.00000000	      0.00000000	    191.71469160	    554.43568540	    -20.08020073	      1.69131543	      0.00000000	      0.98140301	      0.00000000	     -2.81314182	      0.00000000
      7.51900000	      0.00000000	      0.00000000	      0.00000000	      0.00000000	      0.00000000	      0.00000000	      0.00000000	      0.00000000	      0.00000000	    189.46719785	    534.36454833	    -19.74959600	      1.69073769	      0.00000000	      0.98132328	      0.00000000	     -2.84670060	      0.00000000
      7.52000000	      0.00000000	      0.00000000	      0.00000000	      0.00000000	      0.00000000	      0.00000000	      0.00000000	      0.00000000	      0.00000000	    187.21970409	    514.29341127	    -19.41899127	      1.69015995	      0.00000000	      0.98124355	      0.00000000	     -2.88025938	      0.00000000
      7.52100000	      0.00000000	      0.00000000	      0.00000000	      0.00000000	      0.00000000	      0.00000000	      0.00000000	      0.00000000	      0.00000000	    184.34842080	    494.96661917	    -18.96001714	      1.69005413	      0.00000000	      0.98112332	      0.00000000	     -2.88560790	      0.00000000
      7.52200000	      0.00000000	      0.00000000	      0.00000000	      0.00000000	      0.00000000	      0.00000000	      0.00000000	      0.00000000	      0.00000000	    181.47713751	    475.63982707	    -18.50104302	      1.68994832	      0.00000000	      0.98100309	      0.00000000	     -2.89095642	      0.00000000
      7.52300000	      0.00000000	      0.00000000	      0.00000000	      0.00000000	      0.00000000	      0.00000000	      0.00000000	      0.00000000	      0.00000000	    178.60585422	    456.31303496	    -18.04206889	      1.68984250	      0.00000000	      0.98088286	      0.00000000	     -2.89630494	      0.00000000
      7.52400000	      0.00000000	      0.00000000	      0.00000000	      0.00000000	      0.00000000	      0.00000000	      0.00000000	      0.00000000	      0.00000000	    175.38548575	    437.57945862	    -17.50926821	      1.69003502	      0.00000000	      0.98073744	      0.00000000	     -2.88465368	      0.00000000
      7.52500000	      0.00000000	      0.00000000	      0.00000000	      0.00000000	      0.00000000	      0.00000000	      0.00000000	      0.00000000	      0.00000000	    171.99057471	    419.14249014	    -16.93955425	      1.69037669	      0.00000000	      0.98057942	      0.00000000	     -2.86450252	      0.00000000
